<svg xmlns="http://www.w3.org/2000/svg" xmlns:xlink="http://www.w3.org/1999/xlink" viewBox="0 0 481.56 367.53"><defs><style>.cls-1,.cls-10,.cls-11,.cls-12,.cls-13,.cls-14,.cls-15,.cls-16,.cls-17,.cls-18,.cls-19,.cls-2,.cls-20,.cls-3,.cls-4,.cls-5,.cls-6,.cls-7,.cls-8,.cls-9{fill:none;}.cls-10,.cls-11,.cls-12,.cls-13,.cls-14,.cls-15,.cls-16,.cls-17,.cls-18,.cls-19,.cls-2,.cls-20,.cls-3,.cls-4,.cls-5,.cls-6,.cls-7,.cls-8,.cls-9{stroke:#0024a8;stroke-miterlimit:10;stroke-width:1.07px;}.cls-2{stroke-dasharray:3.2;}.cls-4{stroke-dasharray:3.02 3.02;}.cls-5{stroke-dasharray:3.03 3.03;}.cls-6{stroke-dasharray:3.24 3.24;}.cls-7{stroke-dasharray:3.09 3.09;}.cls-8{stroke-dasharray:3.16 3.16;}.cls-9{stroke-dasharray:3.22 3.22;}.cls-10{stroke-dasharray:3.15 3.15;}.cls-11{stroke-dasharray:3.21 3.21;}.cls-12{stroke-dasharray:3.31 3.31;}.cls-13{stroke-dasharray:3.24 3.24;}.cls-14{stroke-dasharray:3.66 3.66;}.cls-15{stroke-dasharray:3.09 3.09;}.cls-16{stroke-dasharray:2.91 2.91;}.cls-17{stroke-dasharray:3.37 3.37;}.cls-18{stroke-dasharray:3.24 3.24;}.cls-19{stroke-dasharray:3.47 3.47;}.cls-20{stroke-dasharray:3.13 3.13;}.cls-21{fill:#4779f6;}.cls-22{fill:#072bdb;}.cls-23{fill:#0024a8;}.cls-24{fill:#054ddd;}.cls-25{fill:#130751;}.cls-26{fill:#b6ceff;}.cls-27{fill:#e4eafe;}.cls-28,.cls-33{fill:#fff;}.cls-28{opacity:0.24;}.cls-29{fill:#fca232;}.cls-30{fill:#f98816;}.cls-31{fill:#fbfffd;}.cls-32{clip-path:url(#clip-path);}.cls-34{clip-path:url(#clip-path-2);}.cls-35{opacity:0.51;}.cls-36{fill:#ffb564;}.cls-37{clip-path:url(#clip-path-3);}</style><clipPath id="clip-path"><path class="cls-1" d="M51,173.35a5.18,5.18,0,1,1-5.17-5.17A5.18,5.18,0,0,1,51,173.35Z"/></clipPath><clipPath id="clip-path-2"><path class="cls-1" d="M51,195.89a5.18,5.18,0,1,1-5.17-5.17A5.18,5.18,0,0,1,51,195.89Z"/></clipPath><clipPath id="clip-path-3"><rect class="cls-1" x="221.5" y="17.56" width="25.18" height="41.71" rx="3.83"/></clipPath></defs><title>hero img 2</title><g id="Layer_2" data-name="Layer 2"><g id="OBJECTS"><polyline class="cls-2" points="399.56 54.36 399.56 24.34 80.83 24.34 80.83 37.69 80.83 116.71 27.53 116.71 27.53 217.25 93.81 217.25"/><line class="cls-3" x1="55.21" y1="278.24" x2="55.21" y2="276.64"/><line class="cls-4" x1="55.21" y1="273.62" x2="55.21" y2="238.84"/><polyline class="cls-3" points="55.21 237.32 55.21 235.73 53.61 235.73"/><line class="cls-5" x1="50.58" y1="235.73" x2="3.65" y2="235.73"/><polyline class="cls-3" points="2.13 235.73 0.53 235.73 0.53 234.13"/><line class="cls-6" x1="0.53" y1="230.88" x2="0.53" y2="180.59"/><polyline class="cls-3" points="0.53 178.96 0.53 177.36 2.13 177.36"/><line class="cls-7" x1="5.22" y1="177.36" x2="65.4" y2="177.36"/><polyline class="cls-3" points="66.94 177.36 68.54 177.36 68.54 175.76"/><line class="cls-8" x1="68.54" y1="172.61" x2="68.54" y2="41.59"/><polyline class="cls-3" points="68.54 40.02 68.54 38.42 70.14 38.42"/><line class="cls-9" x1="73.36" y1="38.42" x2="181.36" y2="38.42"/><polyline class="cls-3" points="182.97 38.42 184.57 38.42 184.57 36.82"/><line class="cls-10" x1="184.57" y1="33.66" x2="184.57" y2="3.71"/><polyline class="cls-3" points="184.57 2.13 184.57 0.53 186.16 0.53"/><line class="cls-11" x1="189.37" y1="0.53" x2="239.06" y2="0.53"/><polyline class="cls-3" points="240.66 0.53 242.26 0.53 242.26 2.13"/><line class="cls-12" x1="242.26" y1="5.45" x2="242.26" y2="36.94"/><polyline class="cls-3" points="242.26 38.59 242.26 40.19 243.86 40.19"/><line class="cls-13" x1="247.09" y1="40.19" x2="297.25" y2="40.19"/><polyline class="cls-3" points="298.87 40.19 300.47 40.19 300.47 41.79"/><line class="cls-14" x1="300.47" y1="45.45" x2="300.47" y2="50.93"/><polyline class="cls-3" points="300.47 52.76 300.47 54.36 302.07 54.36"/><line class="cls-15" x1="305.16" y1="54.36" x2="396.41" y2="54.36"/><polyline class="cls-3" points="397.96 54.36 399.56 54.36 399.56 55.96"/><line class="cls-16" x1="399.56" y1="58.86" x2="399.56" y2="74.85"/><polyline class="cls-3" points="399.56 76.3 399.56 77.9 401.15 77.9"/><line class="cls-17" x1="404.52" y1="77.9" x2="449.97" y2="77.9"/><polyline class="cls-3" points="451.65 77.9 453.25 77.9 453.25 79.5"/><line class="cls-18" x1="453.25" y1="82.73" x2="453.25" y2="126.44"/><polyline class="cls-3" points="453.25 128.06 453.25 129.65 451.65 129.65"/><line class="cls-19" x1="448.18" y1="129.65" x2="415.22" y2="129.65"/><polyline class="cls-3" points="413.49 129.65 411.89 129.65 411.89 131.25"/><line class="cls-20" x1="411.89" y1="134.38" x2="411.89" y2="251.57"/><line class="cls-3" x1="411.89" y1="253.13" x2="411.89" y2="254.73"/><rect class="cls-21" x="31.45" y="351.99" width="414.95" height="15.54"/><polygon class="cls-22" points="393.69 296.98 84.16 296.98 31.45 351.99 446.4 351.99 393.69 296.98"/><ellipse class="cls-23" cx="237.01" cy="325.52" rx="153.13" ry="14.33"/><polygon class="cls-24" points="206.33 275.23 199.73 321.02 278.11 321.02 270.69 275.23 206.33 275.23"/><rect class="cls-24" x="172.51" y="327.62" width="132.84" height="3.3"/><polygon class="cls-21" points="199.73 321.02 172.5 327.62 305.34 327.62 278.11 321.02 199.73 321.02"/><path class="cls-25" d="M98.48,80.14H379.37a12.68,12.68,0,0,1,12.68,12.68V251.65a0,0,0,0,1,0,0H85.8a0,0,0,0,1,0,0V92.82A12.68,12.68,0,0,1,98.48,80.14Z"/><path class="cls-21" d="M85.8,251.65H392.05a0,0,0,0,1,0,0v16.72A12.63,12.63,0,0,1,379.42,281h-281A12.63,12.63,0,0,1,85.8,268.37V251.65A0,0,0,0,1,85.8,251.65Z"/><rect class="cls-26" x="97.1" y="90.04" width="283.66" height="150.99"/><path class="cls-25" d="M244.9,265.16a6,6,0,1,1-6-6A6,6,0,0,1,244.9,265.16Z"/><rect class="cls-21" x="141.82" y="107.27" width="100.44" height="117.24"/><rect class="cls-27" x="156.33" y="123.26" width="71.41" height="6.4"/><rect class="cls-27" x="156.33" y="134.98" width="71.41" height="6.39"/><rect class="cls-27" x="156.33" y="146.71" width="71.41" height="6.4"/><rect class="cls-27" x="156.33" y="158.43" width="71.41" height="6.4"/><rect class="cls-27" x="156.33" y="170.15" width="71.41" height="6.39"/><rect class="cls-27" x="156.33" y="181.88" width="71.41" height="6.4"/><rect class="cls-27" x="156.33" y="193.6" width="71.41" height="6.4"/><rect class="cls-27" x="156.33" y="205.33" width="71.41" height="6.4"/><path class="cls-25" d="M309.89,149.8V139.58h-6.36a21.83,21.83,0,0,0-2.64-6.48l4.53-4.53-7.22-7.23-4.5,4.5a22.09,22.09,0,0,0-6.45-2.72v-6.41H277v6.36a22.21,22.21,0,0,0-6.48,2.64L266,121.18l-7.23,7.22,4.5,4.5a22.2,22.2,0,0,0-2.72,6.45h-6.41v10.22h6.36a22.09,22.09,0,0,0,2.64,6.48l-4.53,4.53,7.23,7.23,4.49-4.5A21.93,21.93,0,0,0,276.8,166v6.41H287v-6.36a22.09,22.09,0,0,0,6.48-2.64L298,168l7.22-7.22-4.5-4.5a21.93,21.93,0,0,0,2.72-6.45ZM282,154.39a9.82,9.82,0,1,1,9.82-9.81A9.81,9.81,0,0,1,282,154.39Z"/><path class="cls-25" d="M348,181.13v-8h-5a17.23,17.23,0,0,0-2.08-5.11l3.57-3.57-5.69-5.68-3.54,3.54a17.18,17.18,0,0,0-5.08-2.14v-5h-8v5a17.23,17.23,0,0,0-5.11,2.08l-3.57-3.57-5.68,5.69,3.54,3.54a17,17,0,0,0-2.14,5.08h-5.05v8h5a17.23,17.23,0,0,0,2.08,5.11l-3.57,3.56,5.69,5.69,3.54-3.54a17,17,0,0,0,5.08,2.14v5h8v-5a17.23,17.23,0,0,0,5.11-2.08l3.56,3.57,5.69-5.69-3.54-3.54a17.18,17.18,0,0,0,2.14-5.08Zm-21.93,3.62a7.73,7.73,0,1,1,7.73-7.73A7.73,7.73,0,0,1,326.06,184.75Z"/><path class="cls-25" d="M304,199.74V194h-3.55a12.47,12.47,0,0,0-1.47-3.62l2.53-2.53-4-4-2.51,2.51a12.08,12.08,0,0,0-3.6-1.52v-3.58h-5.71v3.55a12,12,0,0,0-3.62,1.48l-2.53-2.53-4,4,2.51,2.51a12.27,12.27,0,0,0-1.51,3.61h-3.59v5.7h3.56a12.25,12.25,0,0,0,1.47,3.62l-2.53,2.54,4,4,2.51-2.51a12.51,12.51,0,0,0,3.6,1.52v3.58h5.71v-3.55a12.27,12.27,0,0,0,3.62-1.48l2.53,2.53,4-4-2.51-2.52a12.21,12.21,0,0,0,1.51-3.6Zm-15.56,2.57a5.49,5.49,0,1,1,5.48-5.49A5.49,5.49,0,0,1,288.4,202.31Z"/><polygon class="cls-28" points="231.71 90.04 170.72 241.02 204.48 241.02 264.92 90.04 231.71 90.04"/><polygon class="cls-28" points="285.92 90.04 228.98 241.02 242.54 241.02 300.47 90.04 285.92 90.04"/><path class="cls-24" d="M336.83,58.17a2.35,2.35,0,0,1-1-.24,5.29,5.29,0,0,0-4.31,0,2.35,2.35,0,0,1-3.13-1.06,2.33,2.33,0,0,1,1-3.12,10,10,0,0,1,8.47,0,2.34,2.34,0,0,1-1,4.45Z"/><path class="cls-24" d="M342.51,51.81a2.32,2.32,0,0,1-1.34-.43c-7.53-5.28-14.75-.08-14.82,0a2.34,2.34,0,1,1-2.78-3.77,17.67,17.67,0,0,1,20.29,0,2.34,2.34,0,0,1-1.35,4.26Z"/><path class="cls-24" d="M348.2,45.86a2.33,2.33,0,0,1-1.43-.48c-13.95-10.79-25.33-.58-25.8-.14a2.35,2.35,0,0,1-3.2-3.43c.15-.14,14.71-13.4,31.87-.14a2.34,2.34,0,0,1-1.44,4.19Z"/><circle class="cls-29" cx="399.56" cy="77.9" r="36.39" transform="translate(61.95 305.34) rotate(-45)"/><path class="cls-30" d="M371.82,54.36a36.38,36.38,0,0,0,53,49.73C383.13,98.2,373.65,70.9,371.82,54.36Z"/><path class="cls-31" d="M377.87,83.54a7.47,7.47,0,0,1-3-2.78,8.12,8.12,0,0,1,0-8.09,7.47,7.47,0,0,1,3-2.78,9.16,9.16,0,0,1,4.28-1,9.4,9.4,0,0,1,3.88.77,7.28,7.28,0,0,1,2.82,2.23l-3.18,2.84A4.09,4.09,0,0,0,382.4,73a3.33,3.33,0,0,0-2.54,1,4.35,4.35,0,0,0,0,5.45,3.36,3.36,0,0,0,2.54,1,4.07,4.07,0,0,0,3.27-1.75l3.18,2.84A7.17,7.17,0,0,1,386,83.76a9.94,9.94,0,0,1-8.16-.22Z"/><path class="cls-31" d="M403.66,84.19l-.05-6.81-3.24,5.46h-2.22l-3.25-5.23v6.58h-4.59v-15h4.14l4.87,8,4.74-8h4.15l0,15Z"/><path class="cls-31" d="M412.64,84.11a9.54,9.54,0,0,1-2.9-1.12l1.63-3.67a10.51,10.51,0,0,0,2.39,1,9.32,9.32,0,0,0,2.54.38,3.84,3.84,0,0,0,1.5-.21.64.64,0,0,0,.45-.61c0-.31-.2-.54-.59-.7a11.86,11.86,0,0,0-1.93-.51,22.7,22.7,0,0,1-2.89-.78,5,5,0,0,1-2-1.37,3.74,3.74,0,0,1-.85-2.57,4.43,4.43,0,0,1,.79-2.57,5.19,5.19,0,0,1,2.36-1.81,9.84,9.84,0,0,1,3.81-.67,13.93,13.93,0,0,1,3,.34,9.25,9.25,0,0,1,2.61,1l-1.51,3.65a9.3,9.3,0,0,0-4.17-1.11c-1.3,0-1.94.31-1.94.94,0,.3.19.52.57.67a12.31,12.31,0,0,0,1.9.48,20,20,0,0,1,2.89.74,5.06,5.06,0,0,1,2,1.36,3.61,3.61,0,0,1,.86,2.56,4.35,4.35,0,0,1-.79,2.55,5.29,5.29,0,0,1-2.36,1.82,9.59,9.59,0,0,1-3.81.67A15.52,15.52,0,0,1,412.64,84.11Z"/><path class="cls-21" d="M426,303.16h2.68a28,28,0,0,0,0-55.88H426a28,28,0,0,0,0,55.86Zm-16.89-9.85a31.12,31.12,0,0,1,5.72-3.29,33.57,33.57,0,0,0,8,10.58A25.82,25.82,0,0,1,409.14,293.31Zm17.3,7.46a31.86,31.86,0,0,1-9.57-11.56,32.42,32.42,0,0,1,9.57-1.9Zm0-15.62A34.3,34.3,0,0,0,416,287.23a31.75,31.75,0,0,1-2.24-10h12.68Zm0-10.09H413.7a32.07,32.07,0,0,1,1.74-10.35,33.65,33.65,0,0,0,11,2.33Zm5.42,25.61a33.55,33.55,0,0,0,8.23-11,32.06,32.06,0,0,1,6.15,3.34A25.83,25.83,0,0,1,431.86,300.67Zm15.81-9.33a33,33,0,0,0-6.75-3.7,34.1,34.1,0,0,0,2.23-10.42h10.1A25.62,25.62,0,0,1,447.67,291.34Zm.81-31.15a25.57,25.57,0,0,1,4.85,14.86H443.22a34.37,34.37,0,0,0-1.77-10.76A34.16,34.16,0,0,0,448.48,260.19Zm-1.34-1.7a31.75,31.75,0,0,1-6.44,3.77,33.76,33.76,0,0,0-8.85-12.46A25.6,25.6,0,0,1,447.14,258.49Zm-18.54-8.58a31.84,31.84,0,0,1,10.09,13.15,32,32,0,0,1-10.09,1.86Zm0,17.17a33.85,33.85,0,0,0,10.83-2,32.32,32.32,0,0,1,1.63,10H428.6Zm0,10.14H441a32.11,32.11,0,0,1-2.1,9.67,34.46,34.46,0,0,0-10.29-1.77Zm0,10.06a32.52,32.52,0,0,1,9.45,1.61,32,32,0,0,1-9.45,11.66Zm-2.16-37.59v15.2a31.74,31.74,0,0,1-10.23-2.19A31.82,31.82,0,0,1,426.44,249.69Zm-3.62.17a33.82,33.82,0,0,0-8.59,12,31.76,31.76,0,0,1-6-3.72A25.81,25.81,0,0,1,422.82,249.86Zm-16,9.94a34.1,34.1,0,0,0,6.58,4.06,34.5,34.5,0,0,0-1.91,11.21h-9.81A25.53,25.53,0,0,1,406.86,259.8Zm-5.06,17.44h9.8A34,34,0,0,0,414,288a33.27,33.27,0,0,0-6.31,3.66A25.53,25.53,0,0,1,401.8,277.24Z"/><rect class="cls-21" x="37.2" y="165.89" width="79.33" height="16.73"/><g class="cls-32"><path class="cls-33" d="M51,173.35a5.18,5.18,0,1,1-5.17-5.17A5.18,5.18,0,0,1,51,173.35Z"/><path class="cls-21" d="M47.67,171.46a1.81,1.81,0,1,1-1.8-1.8A1.81,1.81,0,0,1,47.67,171.46Z"/><path class="cls-21" d="M45.29,173.39h1.16a3,3,0,0,1,3,3v2.21a0,0,0,0,1,0,0H42.29a0,0,0,0,1,0,0v-2.21A3,3,0,0,1,45.29,173.39Z"/></g><rect class="cls-33" x="53.57" y="170.15" width="52.8" height="0.8"/><rect class="cls-33" x="53.57" y="172.56" width="52.8" height="0.8"/><rect class="cls-33" x="53.57" y="174.96" width="52.8" height="0.8"/><rect class="cls-33" x="53.57" y="177.36" width="52.8" height="0.8"/><rect class="cls-21" x="37.2" y="188.43" width="79.33" height="16.73"/><g class="cls-34"><path class="cls-33" d="M51,195.89a5.18,5.18,0,1,1-5.17-5.17A5.18,5.18,0,0,1,51,195.89Z"/><path class="cls-21" d="M47.67,194a1.81,1.81,0,1,1-1.8-1.81A1.81,1.81,0,0,1,47.67,194Z"/><path class="cls-21" d="M45.29,195.93h1.16a3,3,0,0,1,3,3v2.21a0,0,0,0,1,0,0H42.29a0,0,0,0,1,0,0v-2.21A3,3,0,0,1,45.29,195.93Z"/></g><rect class="cls-33" x="53.57" y="192.7" width="52.8" height="0.8"/><rect class="cls-33" x="53.57" y="195.1" width="52.8" height="0.8"/><rect class="cls-33" x="53.57" y="197.5" width="52.8" height="0.8"/><rect class="cls-33" x="53.57" y="199.9" width="52.8" height="0.8"/><path class="cls-33" d="M149,51.6h-.73A26.2,26.2,0,0,0,149,45.5a25.88,25.88,0,0,0-41.84-20.38,25.89,25.89,0,0,0-48.73,5.44,25.91,25.91,0,0,0-34.23,21h-.23a19.78,19.78,0,0,0-17.21,10,2.38,2.38,0,0,0,2.07,3.55H164.1a2.37,2.37,0,0,0,2.06-3.55A19.76,19.76,0,0,0,149,51.6Z"/><polygon class="cls-21" points="86.03 70.5 68.54 40.19 51.04 70.5 62.7 70.5 62.7 108.34 74.37 108.34 74.37 70.5 86.03 70.5"/><polygon class="cls-29" points="86.84 78.03 104.34 108.34 121.83 78.03 110.17 78.03 110.17 40.19 98.5 40.19 98.5 78.03 86.84 78.03"/><g class="cls-35"><rect class="cls-21" x="361.61" y="143.26" width="119.95" height="65.06"/><rect class="cls-27" x="367.05" y="149.88" width="99.9" height="4.68"/><rect class="cls-27" x="367.05" y="157.48" width="69.84" height="4.68"/><rect class="cls-27" x="367.05" y="165.08" width="85.47" height="4.68"/><rect class="cls-27" x="367.05" y="172.68" width="99.9" height="4.68"/><rect class="cls-27" x="367.05" y="180.29" width="92.19" height="4.68"/><rect class="cls-27" x="367.05" y="187.89" width="81.93" height="4.68"/><rect class="cls-27" x="367.05" y="195.49" width="94.16" height="4.68"/></g><rect class="cls-29" x="16.61" y="258.53" width="77.19" height="44.94"/><polygon class="cls-36" points="16.61 303.47 55.21 278.24 93.81 303.47 16.61 303.47"/><polygon class="cls-30" points="16.61 258.53 55.21 289.52 93.81 258.53 16.61 258.53"/><rect class="cls-25" x="219" y="15.19" width="30.18" height="50" rx="4.59"/><g class="cls-37"><rect class="cls-26" x="221.5" y="17.56" width="25.18" height="41.71" rx="3.83"/><polygon class="cls-33" points="216.34 49.51 244.74 11.35 251.55 11.35 216.34 59.27 216.34 49.51"/><polygon class="cls-33" points="219 64.6 252.73 17.56 252.73 22 219 69.92 219 64.6"/></g><path class="cls-33" d="M235.57,61.94a1.48,1.48,0,1,1-1.48-1.48A1.48,1.48,0,0,1,235.57,61.94Z"/><rect class="cls-33" x="242.58" y="26.58" width="40.53" height="30.8"/><polygon class="cls-24" points="255.13 50.93 246.41 42.2 255.25 33.36 256.74 34.84 249.37 42.2 256.62 49.44 255.13 50.93"/><polygon class="cls-24" points="270.11 50.93 268.63 49.44 275.99 42.08 268.75 34.84 270.23 33.36 278.96 42.08 270.11 50.93"/><rect class="cls-24" x="254.34" y="41.43" width="16.69" height="2.1" transform="translate(122.88 268.89) rotate(-67.49)"/><rect class="cls-24" x="242.58" y="23" width="40.53" height="3.59"/></g></g></svg>